<svg xmlns="http://www.w3.org/2000/svg" viewBox="0 0 672 672"><defs><style>.cls-1{fill:#fff;}.cls-1,.cls-2{fill-rule:evenodd;}.cls-2{fill:#f37420;}</style></defs><g id="Layer_2" data-name="Layer 2"><g id="Layer_1-2" data-name="Layer 1"><path class="cls-1" d="M336,0C521.57,0,672,150.43,672,336S521.57,672,336,672,0,521.57,0,336,150.43,0,336,0Z"/><path class="cls-2" d="M184.88,414.59A135.4,135.4,0,0,0,320.28,550V478.07a135.43,135.43,0,0,0-121.41-134.7c-.42,0-.86-.06-1.3-.06A12.69,12.69,0,0,0,184.88,356Z"/><path class="cls-2" d="M184.88,292.31A12.68,12.68,0,0,0,196.7,305,173.25,173.25,0,0,1,320.29,369.6V279.19A135.42,135.42,0,0,0,198.88,144.5a11.38,11.38,0,0,0-1.31-.07,12.7,12.7,0,0,0-12.69,12.7Z"/><path class="cls-2" d="M493.78,356a12.69,12.69,0,0,0-12.7-12.69c-.43,0-.87,0-1.3.06a135.44,135.44,0,0,0-121.41,134.7V550A135.4,135.4,0,0,0,493.78,414.59Z"/><path class="cls-2" d="M493.78,157.13a12.7,12.7,0,0,0-12.7-12.7,11.33,11.33,0,0,0-1.3.07A135.43,135.43,0,0,0,358.37,279.19V369.6A173.25,173.25,0,0,1,482,305a12.69,12.69,0,0,0,11.83-12.66Z"/></g></g></svg>