<svg id="Layer_1" data-name="Layer 1" xmlns="http://www.w3.org/2000/svg" viewBox="0 0 4159.96 4159.96"><defs><style>.cls-1{fill:#fff;fill-rule:evenodd;}.cls-2{fill:#e37725;stroke:#e37725;}.cls-10,.cls-11,.cls-2,.cls-3,.cls-4,.cls-5,.cls-6,.cls-7,.cls-8,.cls-9{stroke-miterlimit:23.8;stroke-width:5.95px;}.cls-3{fill:#f6851f;stroke:#f6851f;}.cls-4{fill:#763e1a;stroke:#763e1a;}.cls-5{fill:#e27726;stroke:#e27726;}.cls-6{fill:#c1ae9e;stroke:#c1ae9e;}.cls-7{fill:#cd6328;stroke:#cd6328;}.cls-8{fill:#e37525;stroke:#e37525;}.cls-9{fill:#243447;stroke:#243447;}.cls-10{fill:#d6c0b3;stroke:#d6c0b3;}.cls-11{fill:#171717;stroke:#171717;}</style></defs><g id="Layer_2" data-name="Layer 2"><g id="Layer_1-2" data-name="Layer 1-2"><path class="cls-1" d="M2080,0C3228.73,0,4160,931.22,4160,2080S3228.73,4160,2080,4160,0,3228.73,0,2080,931.22,0,2080,0Z"/><path class="cls-2" d="M3191.16,2547.17l-145,490.22-284.76-77.88Z"/><path class="cls-2" d="M2761.61,2959.51l274.48-376.06,155.07-36.28Z"/><path class="cls-3" d="M2977.59,2177.6l213.32,369.57-155.07,36.28Zm0,0,137.3-95.08,76,464.65Z"/><path class="cls-4" d="M2803.21,1898.35l394.51-161.63-19.62,88.52Zm362.38,33.06-362.38-33.24,374.89-73.11Z"/><path class="cls-4" d="M3165.59,1931.41l-50.45,150.92-311.93-184.16Zm79-157.42-66.54,51.07,19.62-88.52Zm-79,157.42L3178,1825.06l52.87,44Z"/><path class="cls-5" d="M2455.61,2840.1l98.62,31.51,207.38,87.9Z"/><path class="cls-4" d="M3115.14,2082.52l50.45-151.11,43.34,33.3Zm0,0-409.43-134.83,97.5-49.52Z"/><path class="cls-4" d="M2900.64,1435.5l-97.43,462.85-97.5,49.53Z"/><path class="cls-4" d="M3197.72,1736.72l-394.51,161.63,97.43-462.85Z"/><path class="cls-4" d="M2900.64,1435.5,3312.37,1388l-114.65,348.77Z"/><path class="cls-3" d="M3115.14,2082.52l-137.55,95.08-272.38-229.91Z"/><path class="cls-4" d="M3294.54,1054.6,3312.37,1388l-411.73,47.55Z"/><path class="cls-5" d="M3294.54,1054.6l-822.89,598.24L2460.94,1247Z"/><path class="cls-3" d="M1849,1198.4l612,48.72,10.71,405.72Z"/><path class="cls-4" d="M2705.71,1947.69l-234.06-294.85,429-217.47Z"/><path class="cls-2" d="M2705.71,1947.69l272.37,229.91-382,42.16Z"/><path class="cls-2" d="M2595.83,2219.76l-124.18-566.92,234.06,294.73Z"/><path class="cls-4" d="M2900.64,1435.5l-429,217.34,822.89-598.24Z"/><path class="cls-6" d="M1854.28,2950l194.31,202.61L1784.2,2912Z"/><path class="cls-7" d="M2761.61,2959.51l92.17-349.94,182.43-26.12Z"/><path class="cls-5" d="M1066.42,1974.74l336.33-353.53-292.93,311.38Z"/><path class="cls-3" d="M3036.09,2583.45l-182.31,26.12,123.81-432Zm-564.44-930.61-327.41-10.71L1849,1198.28Z"/><path class="cls-8" d="M2977.59,2177.6l-123.81,432-10.09-210.91Z"/><path class="cls-7" d="M2595.83,2219.76l381.76-42.16-134.27,221.06Z"/><path class="cls-3" d="M2144.24,1642.26l327.41,10.58,124.18,566.8Z"/><path class="cls-2" d="M2144.24,1642.26l-883.5-817.57,588.09,373.71Zm-295.91,1432-767.67,237.65L927.39,2726.63Z"/><path class="cls-4" d="M1180.51,2121.15l290-227.56,243,56.39Z"/><path class="cls-4" d="M1713.44,1950l-243-56.46,130-537.14Z"/><path class="cls-4" d="M1109.82,1932.83l360.65-39.24-290,227.56Z"/><path class="cls-7" d="M2816,2383.38l-121.36-62.44-79.41-85.59Z"/><path class="cls-4" d="M1109.82,1932.83l-25.57-134.89,386.22,95.65Z"/><path class="cls-9" d="M2662.93,2493.13l30.15-169.93,145.86,75.46Z"/><path class="cls-3" d="M2853.78,2609.57l-190.73-116.44,180.64-94.47Z"/><path class="cls-4" d="M1470.47,1893.59l-386.22-95.65-31.51-113.53Zm130-537.15-130,537.15-417.73-209.18Zm0,0,543.64,285.82L1713.44,1950Z"/><path class="cls-2" d="M1713.44,1950l430.8-307.79,191.9,586.42Zm622.7,278.57-595.33-12.38L1713.44,1950Z"/><path class="cls-3" d="M1180.51,2121.15,1713.44,1950l27.37,266.19Zm1415.32,98.61-259.69,8.79-191.9-586.42Z"/><path class="cls-7" d="M2693.82,2323.2l-31,169.93-67.11-273.37Z"/><path class="cls-4" d="M1260.74,824.69l883.5,817.57-543.65-285.82Z"/><path class="cls-2" d="M927.39,2726.63l745.07-31,175.87,378.48Z"/><path class="cls-7" d="M1848.33,3074.22l-175.87-378.48,366-17.83Z"/><path class="cls-3" d="M2662.93,2493.13l190.85,116.44L2959,2857.19Zm-922.12-277-813.42,510.4,253.12-605.49Zm-68.1,479.51-745.08,31,813.18-510.46Zm923.36-476,48.72,177.1-235.23,13.69Zm-186.82,190.85-73.11-182,259.69-8.91Z"/><path class="cls-6" d="M2048.59,3152.65l-200.26-78.43,696.36,117.06Z"/><path class="cls-4" d="M1180.51,2121.15l-114.09-146.41,43.34-42.15Z"/><path class="cls-10" d="M2623.75,3104.49l-79.06,86.67-696.36-116.94Z"/><path class="cls-2" d="M2661.2,2891.79l-812.87,182.43L2038.5,2678Z"/><path class="cls-10" d="M1848.33,3074.22l812.87-182.43-37.45,212.7Z"/><path class="cls-4" d="M1052.74,1684.41,1026,1227.5l574.59,128.94Zm57.08,248.42-79-80.47,53.48-54.66Z"/><path class="cls-7" d="M2203,2346.17l133.1-117.62-19,287.61Z"/><path class="cls-7" d="M2306.34,2250.62l-121,105.71-176,90.25Z"/><path class="cls-3" d="M2959,2857.31l-36.22-26.74-259.68-337.44Z"/><path class="cls-7" d="M2009.35,2446.76l-268.54-230.59,595.33,12.38Z"/><path class="cls-8" d="M2317.13,2516.28l19-287.73,73.11,181.87Z"/><path class="cls-4" d="M1004.64,1729.6l48.1-45.19,31.51,113.53Z"/><path class="cls-9" d="M2317.13,2516.28l-307.78-69.52L2203,2346.17Z"/><path class="cls-4" d="M1600.59,1356.44,1026,1227.5l234.74-402.81Z"/><path class="cls-6" d="M2544.69,3191.28l32.69,89.08-528.79-127.71Z"/><path class="cls-3" d="M2038.5,2677.91l-29.15-231.15,307.78,69.52Z"/><path class="cls-8" d="M1740.81,2216.17l268.54,230.53,29.15,231.15Z"/><path class="cls-3" d="M2417.66,2411.34,2649,2396.87l273.52,458.71Zm-676.85-195.17,297.69,461.68-366,17.83Z"/><path class="cls-8" d="M2409.25,2410.55l292.31,445-384.43-339.3Z"/><path class="cls-3" d="M2359.79,2557.68l341.77,301.89-35.88,32.22Z"/><path class="cls-3" d="M2661.2,2891.79l-622.7-213.88,278.57-161.63Zm261.42-60.63-215.44,24.17-284.88-434.1Z"/><path class="cls-6" d="M2980.81,3039.49l-95,190.73-308.41,49.89Zm-403.43,240.62L2544.69,3191l79.06-86.66Z"/><path class="cls-6" d="M2623.75,3103.25l58.25-21.91-104.62,188.33Zm-46.37,177.11,104.62-199,298.81-41.85Z"/><path class="cls-11" d="M2920.59,2829l72,44.25-219.33,26.56Z"/><path class="cls-11" d="M2910.47,2833.49l72.05,44.25-219.33,26.55Z"/><path class="cls-11" d="M2773.05,2901.88l-66.37-46.3,204-24.77Zm-25.31,35.1,270.33-32.69-37.26,135.2Z"/><path class="cls-11" d="M2980.81,3039.49,2682,3081.09l65.93-144.36ZM2682,3082.65l-58.25,21.6,37.45-198.44Zm-20.8-191.11,40.36-36.21,71.75,46.55Zm334.28-16.65,22.59,29.16-270.33,32.68Z"/><path class="cls-11" d="M2704.59,2948.46l25.57-35.1,222.17-26.74Zm-43.33-56.67,86.67,43.49L2682,3074.22Z"/><path class="cls-11" d="M2773.31,2903.88l-22.86,35.1L2673,2893.79Z"/></g></g></svg>